<?xml version="1.0" encoding="UTF-8" standalone="no"?>
<!DOCTYPE svg PUBLIC "-//W3C//DTD SVG 1.1//EN" "http://www.w3.org/Graphics/SVG/1.1/DTD/svg11.dtd">
<svg width="100%" height="100%" viewBox="0 0 600 600" version="1.1" xmlns="http://www.w3.org/2000/svg" xmlns:xlink="http://www.w3.org/1999/xlink" xml:space="preserve" xmlns:serif="http://www.serif.com/" style="fill-rule:evenodd;clip-rule:evenodd;stroke-linecap:round;stroke-linejoin:round;stroke-miterlimit:1.5;">
    <g id="Window-Base" serif:id="Window Base">
        <path d="M560,170C560,98.251 501.749,40 430,40L170,40C98.251,40 40,98.251 40,170L40,430C40,501.749 98.251,560 170,560L430,560C501.749,560 560,501.749 560,430L560,170Z" style="fill:rgb(184,207,244);"/>
        <g transform="matrix(0.762943,0.646466,-0.541664,0.639259,475.251,111.298)">
            <rect x="150" y="40" width="50" height="520" style="fill:rgb(194,252,255);"/>
        </g>
        <g transform="matrix(0.762943,0.646466,-0.739164,0.872344,466.052,-27.8057)">
            <rect x="150" y="40" width="50" height="520" style="fill:rgb(194,251,255);"/>
        </g>
        <path d="M600,150C600,67.213 532.787,0 450,0L150,0C67.213,0 0,67.213 0,150L0,450C0,532.787 67.213,600 150,600L450,600C532.787,600 600,532.787 600,450L600,150ZM560,170C560,98.251 501.749,40 430,40L170,40C98.251,40 40,98.251 40,170L40,430C40,501.749 98.251,560 170,560L430,560C501.749,560 560,501.749 560,430L560,170Z" style="fill:rgb(201,196,205);stroke:black;stroke-opacity:0;stroke-width:1px;"/>
    </g>
    <g id="Cracks-1" serif:id="Cracks 1">
        <g transform="matrix(0.866025,0.5,-0.374645,0.648904,208.204,163.307)">
            <rect x="70" y="280" width="10" height="250" style="fill:rgb(36,35,34);"/>
        </g>
        <g transform="matrix(0.383416,0.923576,-0.692025,0.28729,501.514,164.38)">
            <rect x="70" y="280" width="10" height="250" style="fill:rgb(36,35,34);"/>
        </g>
        <g transform="matrix(0.914024,0.405661,-0.303958,0.684868,312.971,-31.1362)">
            <rect x="70" y="280" width="10" height="250" style="fill:rgb(36,35,34);"/>
        </g>
        <g transform="matrix(0.5,0.866025,-0.648904,0.374645,691.693,-87.8437)">
            <rect x="70" y="280" width="10" height="250" style="fill:rgb(36,35,34);"/>
        </g>
        <g transform="matrix(-0.965926,-0.258819,0.19393,-0.723758,452.974,520.77)">
            <rect x="70" y="280" width="10" height="250" style="fill:rgb(36,35,34);"/>
        </g>
    </g>
    <g id="Cracks-2" serif:id="Cracks 2">
        <g transform="matrix(0.866025,0.5,-0.374645,0.648904,208.204,163.307)">
            <rect x="70" y="280" width="10" height="250" style="fill:rgb(36,35,34);"/>
        </g>
        <g transform="matrix(0.383416,0.923576,-0.692025,0.28729,501.514,164.38)">
            <rect x="70" y="280" width="10" height="250" style="fill:rgb(36,35,34);"/>
        </g>
        <g transform="matrix(0.914024,0.405661,-0.303958,0.684868,312.971,-31.1362)">
            <rect x="70" y="280" width="10" height="250" style="fill:rgb(36,35,34);"/>
        </g>
        <g transform="matrix(0.5,0.866025,-0.648904,0.374645,691.693,-87.8437)">
            <rect x="70" y="280" width="10" height="250" style="fill:rgb(36,35,34);"/>
        </g>
        <g transform="matrix(-0.965926,-0.258819,0.19393,-0.723758,452.974,520.77)">
            <rect x="70" y="280" width="10" height="250" style="fill:rgb(36,35,34);"/>
        </g>
        <g transform="matrix(-3.60822e-16,1,-0.749289,-1.94289e-16,733.462,20)">
            <rect x="70" y="280" width="10" height="250" style="fill:rgb(36,35,34);"/>
        </g>
        <g transform="matrix(-0.5,-0.866025,0.648904,-0.374645,38.307,735.522)">
            <rect x="70" y="280" width="10" height="250" style="fill:rgb(36,35,34);"/>
        </g>
        <g transform="matrix(-0.965926,-0.258819,0.19393,-0.723758,282.974,739.609)">
            <rect x="70" y="280" width="10" height="250" style="fill:rgb(36,35,34);"/>
        </g>
        <g transform="matrix(-0.866025,0.5,-0.374645,-0.648904,325.522,395.306)">
            <rect x="70" y="280" width="10" height="250" style="fill:rgb(36,35,34);"/>
        </g>
        <g transform="matrix(0.258819,0.965926,-0.723758,0.19393,475.474,-1.9153)">
            <rect x="70" y="280" width="10" height="250" style="fill:rgb(36,35,34);"/>
        </g>
        <g transform="matrix(-0.965926,-0.258819,0.19393,-0.723758,502.974,780.77)">
            <rect x="70" y="280" width="10" height="250" style="fill:rgb(36,35,34);"/>
        </g>
        <g transform="matrix(-0.707107,0.707107,-0.529828,-0.529828,706.92,581.311)">
            <rect x="70" y="280" width="10" height="250" style="fill:rgb(36,35,34);"/>
        </g>
        <g transform="matrix(-0.965926,0.258819,-0.19393,-0.723758,250.986,641.947)">
            <rect x="70" y="280" width="10" height="250" style="fill:rgb(36,35,34);"/>
        </g>
    </g>
    <g id="Window-Base1" serif:id="Window Base">
        <path d="M600,150C600,67.213 532.787,0 450,0L150,0C67.213,0 0,67.213 0,150L0,450C0,532.787 67.213,600 150,600L450,600C532.787,600 600,532.787 600,450L600,150ZM560,170C560,98.251 501.749,40 430,40L170,40C98.251,40 40,98.251 40,170L40,430C40,501.749 98.251,560 170,560L430,560C501.749,560 560,501.749 560,430L560,170Z" style="fill:rgb(36,35,34);stroke:black;stroke-opacity:0;stroke-width:1px;"/>
    </g>
    <g transform="matrix(1,0,0,1,14.8346,103.299)">
        <g id="Text">
            <g>
                <g transform="matrix(69.8023,0,0,69.8023,70,190)">
                    <path d="M0.075,-0L0.075,-0.81L0.242,-0.81C0.279,-0.81 0.31,-0.805 0.335,-0.795C0.359,-0.784 0.378,-0.77 0.392,-0.751C0.405,-0.732 0.415,-0.711 0.421,-0.687C0.426,-0.662 0.429,-0.636 0.429,-0.608C0.429,-0.587 0.427,-0.564 0.422,-0.54C0.417,-0.515 0.407,-0.494 0.394,-0.475C0.381,-0.456 0.361,-0.444 0.334,-0.437C0.365,-0.428 0.389,-0.412 0.406,-0.389C0.422,-0.366 0.433,-0.341 0.439,-0.314C0.444,-0.286 0.447,-0.26 0.447,-0.236C0.447,-0.205 0.445,-0.176 0.441,-0.148C0.436,-0.12 0.428,-0.095 0.415,-0.073C0.402,-0.05 0.384,-0.033 0.361,-0.02C0.337,-0.007 0.305,-0 0.266,-0L0.075,-0ZM0.129,-0.043L0.259,-0.043C0.312,-0.043 0.348,-0.059 0.367,-0.09C0.385,-0.121 0.394,-0.17 0.394,-0.235C0.394,-0.268 0.39,-0.297 0.383,-0.324C0.375,-0.351 0.362,-0.372 0.344,-0.388C0.325,-0.404 0.3,-0.412 0.267,-0.412L0.129,-0.412L0.129,-0.043ZM0.129,-0.455L0.266,-0.455C0.296,-0.455 0.319,-0.462 0.335,-0.476C0.351,-0.49 0.362,-0.509 0.369,-0.532C0.375,-0.555 0.378,-0.58 0.378,-0.608C0.378,-0.638 0.374,-0.665 0.367,-0.689C0.36,-0.713 0.345,-0.732 0.325,-0.746C0.304,-0.759 0.272,-0.766 0.229,-0.766L0.129,-0.766L0.129,-0.455Z" style="fill:rgb(36,35,34);fill-rule:nonzero;"/>
                </g>
                <g transform="matrix(69.8023,0,0,69.8023,104.064,190)">
                    <path d="M0.075,-0L0.075,-0.81L0.271,-0.81C0.319,-0.81 0.356,-0.801 0.382,-0.784C0.407,-0.766 0.425,-0.742 0.435,-0.712C0.444,-0.681 0.449,-0.647 0.449,-0.61C0.449,-0.58 0.446,-0.551 0.44,-0.524C0.433,-0.497 0.422,-0.474 0.405,-0.455C0.388,-0.436 0.363,-0.423 0.33,-0.418L0.46,-0L0.406,-0L0.28,-0.408L0.129,-0.408L0.129,-0L0.075,-0ZM0.129,-0.45L0.269,-0.45C0.304,-0.45 0.33,-0.456 0.348,-0.47C0.366,-0.483 0.379,-0.501 0.386,-0.525C0.393,-0.549 0.396,-0.577 0.396,-0.61C0.396,-0.661 0.388,-0.7 0.371,-0.727C0.354,-0.754 0.319,-0.767 0.268,-0.767L0.129,-0.767L0.129,-0.45Z" style="fill:rgb(36,35,34);fill-rule:nonzero;"/>
                </g>
                <g transform="matrix(69.8023,0,0,69.8023,139.523,190)">
                    <path d="M0.074,-0L0.074,-0.81L0.354,-0.81L0.354,-0.766L0.129,-0.766L0.129,-0.441L0.314,-0.441L0.314,-0.399L0.129,-0.399L0.129,-0.043L0.357,-0.043L0.357,-0L0.074,-0Z" style="fill:rgb(36,35,34);fill-rule:nonzero;"/>
                </g>
                <g transform="matrix(69.8023,0,0,69.8023,166.955,190)">
                    <path d="M0.032,-0L0.202,-0.81L0.265,-0.81L0.436,-0L0.381,-0L0.339,-0.224L0.129,-0.224L0.086,-0L0.032,-0ZM0.137,-0.264L0.332,-0.264L0.234,-0.744L0.137,-0.264Z" style="fill:rgb(36,35,34);fill-rule:nonzero;"/>
                </g>
                <g transform="matrix(69.8023,0,0,69.8023,199.623,190)">
                    <path d="M0.074,-0L0.074,-0.81L0.129,-0.81L0.129,-0.355L0.364,-0.81L0.418,-0.81L0.247,-0.467L0.459,-0L0.405,-0L0.214,-0.42L0.129,-0.265L0.129,-0L0.074,-0Z" style="fill:rgb(36,35,34);fill-rule:nonzero;"/>
                </g>
                <g transform="matrix(69.8023,0,0,69.8023,244.925,190)">
                    <path d="M0.252,0.011C0.201,0.011 0.161,0 0.133,-0.021C0.105,-0.042 0.086,-0.071 0.075,-0.108C0.064,-0.145 0.058,-0.188 0.058,-0.235L0.058,-0.579C0.058,-0.626 0.064,-0.668 0.075,-0.704C0.086,-0.74 0.105,-0.768 0.134,-0.789C0.163,-0.809 0.203,-0.819 0.255,-0.819C0.302,-0.819 0.339,-0.81 0.367,-0.791C0.394,-0.772 0.413,-0.746 0.425,-0.711C0.436,-0.676 0.442,-0.635 0.442,-0.588L0.442,-0.56L0.39,-0.56L0.39,-0.591C0.39,-0.631 0.386,-0.665 0.378,-0.692C0.37,-0.719 0.356,-0.739 0.337,-0.753C0.318,-0.767 0.29,-0.774 0.255,-0.774C0.216,-0.774 0.186,-0.766 0.165,-0.75C0.144,-0.733 0.131,-0.711 0.124,-0.682C0.117,-0.653 0.113,-0.619 0.113,-0.581L0.113,-0.228C0.113,-0.189 0.117,-0.155 0.125,-0.126C0.133,-0.096 0.147,-0.074 0.168,-0.058C0.189,-0.042 0.218,-0.034 0.256,-0.034C0.292,-0.034 0.32,-0.042 0.34,-0.057C0.359,-0.072 0.373,-0.094 0.381,-0.123C0.388,-0.152 0.392,-0.186 0.392,-0.225L0.392,-0.344L0.263,-0.344L0.263,-0.386L0.443,-0.386L0.443,-0L0.408,-0L0.4,-0.091C0.39,-0.06 0.374,-0.035 0.351,-0.017C0.328,0.002 0.295,0.011 0.252,0.011Z" style="fill:rgb(36,35,34);fill-rule:nonzero;"/>
                </g>
                <g transform="matrix(69.8023,0,0,69.8023,280.524,190)">
                    <path d="M0.075,-0L0.075,-0.81L0.129,-0.81L0.129,-0.043L0.374,-0.043L0.374,-0L0.075,-0Z" style="fill:rgb(36,35,34);fill-rule:nonzero;"/>
                </g>
                <g transform="matrix(69.8023,0,0,69.8023,306.56,190)">
                    <path d="M0.032,-0L0.202,-0.81L0.265,-0.81L0.436,-0L0.381,-0L0.339,-0.224L0.129,-0.224L0.086,-0L0.032,-0ZM0.137,-0.264L0.332,-0.264L0.234,-0.744L0.137,-0.264Z" style="fill:rgb(36,35,34);fill-rule:nonzero;"/>
                </g>
                <g transform="matrix(69.8023,0,0,69.8023,339.228,190)">
                    <path d="M0.237,0.01C0.194,0.01 0.159,0.001 0.132,-0.016C0.104,-0.033 0.083,-0.058 0.069,-0.089C0.054,-0.12 0.045,-0.157 0.042,-0.2L0.089,-0.215C0.094,-0.18 0.101,-0.148 0.111,-0.121C0.12,-0.094 0.135,-0.073 0.155,-0.058C0.175,-0.043 0.203,-0.035 0.238,-0.035C0.278,-0.035 0.31,-0.045 0.333,-0.065C0.356,-0.085 0.367,-0.118 0.367,-0.165C0.367,-0.2 0.358,-0.232 0.34,-0.261C0.321,-0.289 0.295,-0.319 0.262,-0.352L0.114,-0.499C0.089,-0.524 0.071,-0.55 0.06,-0.575C0.049,-0.6 0.043,-0.626 0.043,-0.653C0.043,-0.706 0.059,-0.747 0.093,-0.776C0.126,-0.805 0.168,-0.819 0.221,-0.819C0.248,-0.819 0.273,-0.816 0.295,-0.809C0.317,-0.802 0.336,-0.79 0.353,-0.775C0.369,-0.759 0.382,-0.738 0.391,-0.712C0.4,-0.686 0.406,-0.654 0.409,-0.616L0.363,-0.605C0.36,-0.643 0.354,-0.675 0.344,-0.7C0.334,-0.725 0.319,-0.744 0.3,-0.757C0.281,-0.769 0.255,-0.775 0.222,-0.775C0.185,-0.775 0.155,-0.766 0.13,-0.747C0.105,-0.728 0.093,-0.698 0.093,-0.657C0.093,-0.636 0.097,-0.616 0.106,-0.597C0.114,-0.578 0.129,-0.557 0.152,-0.534L0.298,-0.39C0.331,-0.358 0.359,-0.324 0.383,-0.288C0.406,-0.251 0.418,-0.211 0.418,-0.168C0.418,-0.127 0.41,-0.094 0.395,-0.068C0.38,-0.041 0.358,-0.022 0.331,-0.009C0.304,0.004 0.272,0.01 0.237,0.01Z" style="fill:rgb(36,35,34);fill-rule:nonzero;"/>
                </g>
                <g transform="matrix(69.8023,0,0,69.8023,370.778,190)">
                    <path d="M0.237,0.01C0.194,0.01 0.159,0.001 0.132,-0.016C0.104,-0.033 0.083,-0.058 0.069,-0.089C0.054,-0.12 0.045,-0.157 0.042,-0.2L0.089,-0.215C0.094,-0.18 0.101,-0.148 0.111,-0.121C0.12,-0.094 0.135,-0.073 0.155,-0.058C0.175,-0.043 0.203,-0.035 0.238,-0.035C0.278,-0.035 0.31,-0.045 0.333,-0.065C0.356,-0.085 0.367,-0.118 0.367,-0.165C0.367,-0.2 0.358,-0.232 0.34,-0.261C0.321,-0.289 0.295,-0.319 0.262,-0.352L0.114,-0.499C0.089,-0.524 0.071,-0.55 0.06,-0.575C0.049,-0.6 0.043,-0.626 0.043,-0.653C0.043,-0.706 0.059,-0.747 0.093,-0.776C0.126,-0.805 0.168,-0.819 0.221,-0.819C0.248,-0.819 0.273,-0.816 0.295,-0.809C0.317,-0.802 0.336,-0.79 0.353,-0.775C0.369,-0.759 0.382,-0.738 0.391,-0.712C0.4,-0.686 0.406,-0.654 0.409,-0.616L0.363,-0.605C0.36,-0.643 0.354,-0.675 0.344,-0.7C0.334,-0.725 0.319,-0.744 0.3,-0.757C0.281,-0.769 0.255,-0.775 0.222,-0.775C0.185,-0.775 0.155,-0.766 0.13,-0.747C0.105,-0.728 0.093,-0.698 0.093,-0.657C0.093,-0.636 0.097,-0.616 0.106,-0.597C0.114,-0.578 0.129,-0.557 0.152,-0.534L0.298,-0.39C0.331,-0.358 0.359,-0.324 0.383,-0.288C0.406,-0.251 0.418,-0.211 0.418,-0.168C0.418,-0.127 0.41,-0.094 0.395,-0.068C0.38,-0.041 0.358,-0.022 0.331,-0.009C0.304,0.004 0.272,0.01 0.237,0.01Z" style="fill:rgb(36,35,34);fill-rule:nonzero;"/>
                </g>
                <g transform="matrix(69.8023,0,0,69.8023,415.521,190)">
                    <path d="M0.075,-0L0.075,-0.81L0.354,-0.81L0.354,-0.767L0.129,-0.767L0.129,-0.441L0.323,-0.441L0.323,-0.399L0.129,-0.399L0.129,-0L0.075,-0Z" style="fill:rgb(36,35,34);fill-rule:nonzero;"/>
                </g>
                <g transform="matrix(69.8023,0,0,69.8023,442.256,190)">
                    <path d="M0.258,0.011C0.205,0.011 0.165,0 0.136,-0.021C0.107,-0.042 0.086,-0.07 0.075,-0.107C0.064,-0.143 0.058,-0.184 0.058,-0.23L0.058,-0.584C0.058,-0.63 0.064,-0.671 0.076,-0.706C0.088,-0.741 0.109,-0.769 0.138,-0.789C0.167,-0.809 0.207,-0.819 0.258,-0.819C0.309,-0.819 0.349,-0.809 0.379,-0.789C0.407,-0.769 0.428,-0.741 0.44,-0.706C0.452,-0.671 0.458,-0.63 0.458,-0.584L0.458,-0.229C0.458,-0.183 0.452,-0.142 0.441,-0.106C0.43,-0.07 0.409,-0.042 0.381,-0.021C0.352,0 0.311,0.011 0.258,0.011ZM0.258,-0.034C0.297,-0.034 0.327,-0.042 0.348,-0.057C0.369,-0.072 0.383,-0.094 0.391,-0.122C0.399,-0.149 0.403,-0.181 0.403,-0.218L0.403,-0.592C0.403,-0.629 0.399,-0.661 0.391,-0.688C0.383,-0.715 0.369,-0.737 0.348,-0.752C0.327,-0.767 0.297,-0.774 0.258,-0.774C0.219,-0.774 0.19,-0.767 0.169,-0.752C0.148,-0.737 0.133,-0.715 0.125,-0.688C0.117,-0.661 0.113,-0.629 0.113,-0.592L0.113,-0.218C0.113,-0.181 0.117,-0.149 0.125,-0.122C0.133,-0.094 0.148,-0.072 0.169,-0.057C0.19,-0.042 0.219,-0.034 0.258,-0.034Z" style="fill:rgb(36,35,34);fill-rule:nonzero;"/>
                </g>
                <g transform="matrix(69.8023,0,0,69.8023,478.274,190)">
                    <path d="M0.075,-0L0.075,-0.81L0.271,-0.81C0.319,-0.81 0.356,-0.801 0.382,-0.784C0.407,-0.766 0.425,-0.742 0.435,-0.712C0.444,-0.681 0.449,-0.647 0.449,-0.61C0.449,-0.58 0.446,-0.551 0.44,-0.524C0.433,-0.497 0.422,-0.474 0.405,-0.455C0.388,-0.436 0.363,-0.423 0.33,-0.418L0.46,-0L0.406,-0L0.28,-0.408L0.129,-0.408L0.129,-0L0.075,-0ZM0.129,-0.45L0.269,-0.45C0.304,-0.45 0.33,-0.456 0.348,-0.47C0.366,-0.483 0.379,-0.501 0.386,-0.525C0.393,-0.549 0.396,-0.577 0.396,-0.61C0.396,-0.661 0.388,-0.7 0.371,-0.727C0.354,-0.754 0.319,-0.767 0.268,-0.767L0.129,-0.767L0.129,-0.45Z" style="fill:rgb(36,35,34);fill-rule:nonzero;"/>
                </g>
                <g transform="matrix(69.8023,0,0,69.8023,70,259.802)">
                    <path d="M0.074,-0L0.074,-0.81L0.354,-0.81L0.354,-0.766L0.129,-0.766L0.129,-0.441L0.314,-0.441L0.314,-0.399L0.129,-0.399L0.129,-0.043L0.357,-0.043L0.357,-0L0.074,-0Z" style="fill:rgb(36,35,34);fill-rule:nonzero;"/>
                </g>
                <g transform="matrix(69.8023,0,0,69.8023,98.8982,259.802)">
                    <path d="M0.065,-0L0.089,-0.81L0.143,-0.81L0.314,-0.079L0.488,-0.81L0.544,-0.81L0.567,-0L0.52,-0L0.5,-0.679L0.335,-0L0.295,-0L0.132,-0.678L0.112,-0L0.065,-0Z" style="fill:rgb(36,35,34);fill-rule:nonzero;"/>
                </g>
                <g transform="matrix(69.8023,0,0,69.8023,144.479,259.802)">
                    <path d="M0.074,-0L0.074,-0.81L0.354,-0.81L0.354,-0.766L0.129,-0.766L0.129,-0.441L0.314,-0.441L0.314,-0.399L0.129,-0.399L0.129,-0.043L0.357,-0.043L0.357,-0L0.074,-0Z" style="fill:rgb(36,35,34);fill-rule:nonzero;"/>
                </g>
                <g transform="matrix(69.8023,0,0,69.8023,173.377,259.802)">
                    <path d="M0.075,-0L0.075,-0.81L0.271,-0.81C0.319,-0.81 0.356,-0.801 0.382,-0.784C0.407,-0.766 0.425,-0.742 0.435,-0.712C0.444,-0.681 0.449,-0.647 0.449,-0.61C0.449,-0.58 0.446,-0.551 0.44,-0.524C0.433,-0.497 0.422,-0.474 0.405,-0.455C0.388,-0.436 0.363,-0.423 0.33,-0.418L0.46,-0L0.406,-0L0.28,-0.408L0.129,-0.408L0.129,-0L0.075,-0ZM0.129,-0.45L0.269,-0.45C0.304,-0.45 0.33,-0.456 0.348,-0.47C0.366,-0.483 0.379,-0.501 0.386,-0.525C0.393,-0.549 0.396,-0.577 0.396,-0.61C0.396,-0.661 0.388,-0.7 0.371,-0.727C0.354,-0.754 0.319,-0.767 0.268,-0.767L0.129,-0.767L0.129,-0.45Z" style="fill:rgb(36,35,34);fill-rule:nonzero;"/>
                </g>
                <g transform="matrix(69.8023,0,0,69.8023,210.303,259.802)">
                    <path d="M0.252,0.011C0.201,0.011 0.161,0 0.133,-0.021C0.105,-0.042 0.086,-0.071 0.075,-0.108C0.064,-0.145 0.058,-0.188 0.058,-0.235L0.058,-0.579C0.058,-0.626 0.064,-0.668 0.075,-0.704C0.086,-0.74 0.105,-0.768 0.134,-0.789C0.163,-0.809 0.203,-0.819 0.255,-0.819C0.302,-0.819 0.339,-0.81 0.367,-0.791C0.394,-0.772 0.413,-0.746 0.425,-0.711C0.436,-0.676 0.442,-0.635 0.442,-0.588L0.442,-0.56L0.39,-0.56L0.39,-0.591C0.39,-0.631 0.386,-0.665 0.378,-0.692C0.37,-0.719 0.356,-0.739 0.337,-0.753C0.318,-0.767 0.29,-0.774 0.255,-0.774C0.216,-0.774 0.186,-0.766 0.165,-0.75C0.144,-0.733 0.131,-0.711 0.124,-0.682C0.117,-0.653 0.113,-0.619 0.113,-0.581L0.113,-0.228C0.113,-0.189 0.117,-0.155 0.125,-0.126C0.133,-0.096 0.147,-0.074 0.168,-0.058C0.189,-0.042 0.218,-0.034 0.256,-0.034C0.292,-0.034 0.32,-0.042 0.34,-0.057C0.359,-0.072 0.373,-0.094 0.381,-0.123C0.388,-0.152 0.392,-0.186 0.392,-0.225L0.392,-0.344L0.263,-0.344L0.263,-0.386L0.443,-0.386L0.443,-0L0.408,-0L0.4,-0.091C0.39,-0.06 0.374,-0.035 0.351,-0.017C0.328,0.002 0.295,0.011 0.252,0.011Z" style="fill:rgb(36,35,34);fill-rule:nonzero;"/>
                </g>
                <g transform="matrix(69.8023,0,0,69.8023,247.368,259.802)">
                    <path d="M0.074,-0L0.074,-0.81L0.354,-0.81L0.354,-0.766L0.129,-0.766L0.129,-0.441L0.314,-0.441L0.314,-0.399L0.129,-0.399L0.129,-0.043L0.357,-0.043L0.357,-0L0.074,-0Z" style="fill:rgb(36,35,34);fill-rule:nonzero;"/>
                </g>
                <g transform="matrix(69.8023,0,0,69.8023,276.266,259.802)">
                    <path d="M0.075,-0L0.075,-0.81L0.118,-0.81L0.393,-0.126L0.393,-0.81L0.441,-0.81L0.441,-0L0.398,-0L0.123,-0.685L0.123,-0L0.075,-0Z" style="fill:rgb(36,35,34);fill-rule:nonzero;"/>
                </g>
                <g transform="matrix(69.8023,0,0,69.8023,313.68,259.802)">
                    <path d="M0.255,0.011C0.202,0.011 0.161,0 0.133,-0.022C0.104,-0.044 0.085,-0.074 0.074,-0.111C0.063,-0.148 0.058,-0.188 0.058,-0.233L0.058,-0.577C0.058,-0.624 0.064,-0.665 0.075,-0.702C0.086,-0.738 0.106,-0.767 0.135,-0.788C0.164,-0.809 0.204,-0.819 0.255,-0.819C0.302,-0.819 0.339,-0.81 0.366,-0.791C0.393,-0.772 0.412,-0.746 0.423,-0.712C0.434,-0.677 0.44,-0.637 0.44,-0.591L0.44,-0.55L0.388,-0.55L0.388,-0.591C0.388,-0.63 0.384,-0.663 0.377,-0.69C0.37,-0.716 0.356,-0.737 0.337,-0.752C0.318,-0.767 0.29,-0.774 0.255,-0.774C0.216,-0.774 0.187,-0.766 0.166,-0.75C0.145,-0.734 0.131,-0.712 0.124,-0.683C0.117,-0.654 0.113,-0.621 0.113,-0.583L0.113,-0.225C0.113,-0.185 0.117,-0.151 0.125,-0.123C0.133,-0.094 0.147,-0.072 0.168,-0.057C0.189,-0.042 0.218,-0.034 0.255,-0.034C0.291,-0.034 0.319,-0.042 0.338,-0.057C0.357,-0.072 0.371,-0.094 0.378,-0.122C0.385,-0.149 0.388,-0.181 0.388,-0.218L0.388,-0.267L0.44,-0.267L0.44,-0.227C0.44,-0.181 0.435,-0.14 0.424,-0.104C0.413,-0.068 0.395,-0.04 0.368,-0.02C0.341,0.001 0.304,0.011 0.255,0.011Z" style="fill:rgb(36,35,34);fill-rule:nonzero;"/>
                </g>
                <g transform="matrix(69.8023,0,0,69.8023,349.279,259.802)">
                    <path d="M0.207,-0L0.207,-0.259L0.02,-0.81L0.076,-0.81L0.235,-0.324L0.386,-0.81L0.442,-0.81L0.261,-0.259L0.261,-0L0.207,-0Z" style="fill:rgb(36,35,34);fill-rule:nonzero;"/>
                </g>
                <g transform="matrix(69.8023,0,0,69.8023,397.652,259.802)">
                    <path d="M0.22,-0L0.024,-0.81L0.078,-0.81L0.246,-0.095L0.403,-0.81L0.456,-0.81L0.271,-0L0.22,-0Z" style="fill:rgb(36,35,34);fill-rule:nonzero;"/>
                </g>
                <g transform="matrix(69.8023,0,0,69.8023,432.623,259.802)">
                    <rect x="0.076" y="-0.81" width="0.054" height="0.81" style="fill:rgb(36,35,34);fill-rule:nonzero;"/>
                </g>
                <g transform="matrix(69.8023,0,0,69.8023,448.468,259.802)">
                    <path d="M0.075,-0L0.075,-0.81L0.242,-0.81C0.279,-0.81 0.31,-0.805 0.335,-0.795C0.359,-0.784 0.378,-0.77 0.392,-0.751C0.405,-0.732 0.415,-0.711 0.421,-0.687C0.426,-0.662 0.429,-0.636 0.429,-0.608C0.429,-0.587 0.427,-0.564 0.422,-0.54C0.417,-0.515 0.407,-0.494 0.394,-0.475C0.381,-0.456 0.361,-0.444 0.334,-0.437C0.365,-0.428 0.389,-0.412 0.406,-0.389C0.422,-0.366 0.433,-0.341 0.439,-0.314C0.444,-0.286 0.447,-0.26 0.447,-0.236C0.447,-0.205 0.445,-0.176 0.441,-0.148C0.436,-0.12 0.428,-0.095 0.415,-0.073C0.402,-0.05 0.384,-0.033 0.361,-0.02C0.337,-0.007 0.305,-0 0.266,-0L0.075,-0ZM0.129,-0.043L0.259,-0.043C0.312,-0.043 0.348,-0.059 0.367,-0.09C0.385,-0.121 0.394,-0.17 0.394,-0.235C0.394,-0.268 0.39,-0.297 0.383,-0.324C0.375,-0.351 0.362,-0.372 0.344,-0.388C0.325,-0.404 0.3,-0.412 0.267,-0.412L0.129,-0.412L0.129,-0.043ZM0.129,-0.455L0.266,-0.455C0.296,-0.455 0.319,-0.462 0.335,-0.476C0.351,-0.49 0.362,-0.509 0.369,-0.532C0.375,-0.555 0.378,-0.58 0.378,-0.608C0.378,-0.638 0.374,-0.665 0.367,-0.689C0.36,-0.713 0.345,-0.732 0.325,-0.746C0.304,-0.759 0.272,-0.766 0.229,-0.766L0.129,-0.766L0.129,-0.455Z" style="fill:rgb(36,35,34);fill-rule:nonzero;"/>
                </g>
                <g transform="matrix(69.8023,0,0,69.8023,483.998,259.802)">
                    <path d="M0.074,-0L0.074,-0.81L0.354,-0.81L0.354,-0.766L0.129,-0.766L0.129,-0.441L0.314,-0.441L0.314,-0.399L0.129,-0.399L0.129,-0.043L0.357,-0.043L0.357,-0L0.074,-0Z" style="fill:rgb(36,35,34);fill-rule:nonzero;"/>
                </g>
            </g>
        </g>
    </g>
</svg>
